<svg id="Layer_1" data-name="Layer 1" xmlns="http://www.w3.org/2000/svg" viewBox="0 0 100 100"><defs><style>.cls-1{fill:#598dca;}</style></defs><path class="cls-1" d="M50,0a50,50,0,1,0,50,50A50,50,0,0,0,50,0Zm0,93.75A43.75,43.75,0,1,1,93.75,50,43.75,43.75,0,0,1,50,93.75Z" transform="translate(0)"/><path class="cls-1" d="M61.06,52.64a18.75,18.75,0,1,0-22.12,0L29.16,79.49l3.74,8,11.67-32a18.83,18.83,0,0,0,10.86,0L67.1,87.5l3.74-8Zm-7.77-3.09a12.25,12.25,0,0,1-6.58,0,12.53,12.53,0,1,1,6.58,0Z" transform="translate(0)"/><rect class="cls-1" x="46.87" y="12.5" width="6.25" height="12.5"/><path class="cls-1" d="M50,68.75A25,25,0,0,1,31,60l-2.55,6.38a31.22,31.22,0,0,0,43.1,0L69,60A25,25,0,0,1,50,68.75Z" transform="translate(0)"/></svg>