<?xml version="1.0" encoding="utf-8"?>
<!-- Generator: Adobe Illustrator 24.3.0, SVG Export Plug-In . SVG Version: 6.00 Build 0)  -->
<svg version="1.1" id="Layer_1" xmlns="http://www.w3.org/2000/svg" xmlns:xlink="http://www.w3.org/1999/xlink" x="0px" y="0px"
	 viewBox="0 0 36 36.1" style="enable-background:new 0 0 36 36.1;" xml:space="preserve">
<style type="text/css">
	.st0{fill:#333333;}
</style>
<path class="st0" d="M33.8,36.1L20.6,22.9c-1,0.9-2.2,1.5-3.5,2s-2.7,0.7-4.3,0.7c-3.6,0-6.7-1.2-9.2-3.8S0,16.4,0,12.9
	s1.2-6.6,3.8-9.1S9.3,0,12.9,0s6.6,1.2,9,3.8c2.5,2.5,3.7,5.5,3.7,9.1c0,1.4-0.2,2.8-0.7,4.1s-1.2,2.6-2.1,3.8L36,33.9L33.8,36.1z
	 M12.9,22.6c2.7,0,5-1,6.9-2.9c1.9-1.9,2.8-4.2,2.8-6.9s-0.9-5-2.8-6.9S15.6,3,12.9,3s-5.1,1-7,2.9S3,10.1,3,12.9s1,5,2.9,6.9
	C7.8,21.7,10.1,22.6,12.9,22.6z"/>
</svg>
