<svg xmlns="http://www.w3.org/2000/svg" viewBox="0 0 246.15 200.0126"><path d="M221.95 51.29c.15 2.17.15 4.34.15 6.53 0 66.73-50.8 143.69-143.69 143.69v-.04A142.966 142.966 0 0 1 1 178.83a102.726 102.726 0 0 0 12.02.73 101.407 101.407 0 0 0 62.72-21.66 50.564 50.564 0 0 1-47.18-35.07 50.338 50.338 0 0 0 22.8-.87 50.505 50.505 0 0 1-40.51-49.5v-.64a50.18 50.18 0 0 0 22.92 6.32 50.564 50.564 0 0 1-15.63-67.43 143.333 143.333 0 0 0 104.08 52.76 50.548 50.548 0 0 1 86.06-46.06 101.337 101.337 0 0 0 32.07-12.26 50.69 50.69 0 0 1-22.2 27.93 100.435 100.435 0 0 0 29-7.95 102.594 102.594 0 0 1-25.2 26.16Z" style="fill:#1d9bf0" transform="translate(-1 -1.497)"/></svg>