<svg id="Layer_1" data-name="Layer 1" xmlns="http://www.w3.org/2000/svg" viewBox="0 0 36 36.1"><defs><style>.cls-1{fill:#333;}</style></defs><path class="cls-1" d="M33.8,36.1,20.6,22.9a11,11,0,0,1-3.5,2,11.76,11.76,0,0,1-4.3.7,12.23,12.23,0,0,1-9.2-3.8A12.07,12.07,0,0,1,0,12.9,12.16,12.16,0,0,1,3.8,3.8,12.55,12.55,0,0,1,12.9,0a11.65,11.65,0,0,1,9,3.8,12.29,12.29,0,0,1,3.7,9.1,11.41,11.41,0,0,1-.7,4.1,15.84,15.84,0,0,1-2.1,3.8L36,33.9ZM12.9,22.6a9.44,9.44,0,0,0,6.9-2.9,9.35,9.35,0,0,0,2.8-6.9,9.35,9.35,0,0,0-2.8-6.9A9.44,9.44,0,0,0,12.9,3a9.67,9.67,0,0,0-7,2.9,9.51,9.51,0,0,0-2.9,7,9.28,9.28,0,0,0,2.9,6.9A9.42,9.42,0,0,0,12.9,22.6Z"/></svg>