<?xml version="1.0" encoding="utf-8"?>
<!-- Generator: Adobe Illustrator 24.3.0, SVG Export Plug-In . SVG Version: 6.00 Build 0)  -->
<svg version="1.1" xmlns="http://www.w3.org/2000/svg" xmlns:xlink="http://www.w3.org/1999/xlink" x="0px" y="0px"
	 viewBox="0 0 48 48" style="enable-background:new 0 0 48 48;" xml:space="preserve">
<style type="text/css">
	.st0{fill:#3195FF;}
	.st1{display:none;}
	.st2{display:inline;fill:#FFFFFF;}
</style>
<g id="Layer_1">
	<path class="st0" d="M17.1,45.9c-1.6,0-3-0.5-4.3-1.4s-2.1-2.2-2.6-3.7c-0.5,0.9-1.2,1.5-1.9,2s-1.7,0.7-2.8,0.7
		c-1.6,0-2.9-0.6-3.9-1.7S0.1,39.5,0.1,38c0-1.6,0.5-2.9,1.5-3.9c1-0.9,2.3-1.4,3.9-1.5c-0.6-0.7-1.1-1.4-1.4-2.3
		c-0.3-0.9-0.5-1.8-0.5-2.7c0-1.3,0.3-2.5,1-3.5c0.7-1.1,1.6-2,2.8-2.7c0.2,0.4,0.4,0.9,0.6,1.4s0.5,0.9,0.8,1.3
		c-0.7,0.4-1.2,1-1.6,1.6s-0.6,1.3-0.6,2c0,2,0.8,3.3,2.4,3.8s3.2,0.9,4.7,1.2l0.5,1c-0.4,1.2-0.7,2.1-1,2.9s-0.4,1.4-0.4,2.1
		c0,1.1,0.4,2.1,1.3,3c0.9,0.9,1.8,1.3,3,1.3c1.4,0,2.5-0.6,3.4-1.7c0.9-1.2,1.6-2.5,2.1-4.1c0.6-1.6,1-3.2,1.3-4.8
		c0.3-1.6,0.6-2.9,0.8-3.8l2.9,0.8c-0.3,1.4-0.7,3.1-1.1,5c-0.4,1.9-1,3.7-1.7,5.4s-1.7,3.2-2.9,4.4S19,45.9,17.1,45.9z M5.6,40.5
		c0.7,0,1.3-0.2,1.8-0.7s0.7-1.1,0.7-1.8c0-0.7-0.2-1.3-0.7-1.8s-1.1-0.7-1.8-0.7s-1.3,0.2-1.8,0.7S3,37.3,3,38
		c0,0.7,0.2,1.3,0.7,1.8S4.8,40.5,5.6,40.5z M20.6,31c-1.5-1.3-2.9-2.6-4.1-3.7c-1.2-1.1-2.3-2.3-3.2-3.4c-0.9-1.1-1.6-2.2-2.1-3.2
		s-0.7-2.2-0.7-3.4c0-2,0.7-3.7,2.1-5.1s3.1-2.1,5.1-2.1c0.3,0,0.6,0,0.9,0c0.3,0,0.5,0.1,0.8,0.1c-0.3-0.6-0.5-1-0.6-1.4
		c-0.1-0.4-0.2-0.8-0.2-1.2c0-1.5,0.5-2.8,1.6-3.9s2.4-1.6,3.9-1.6s2.8,0.5,3.9,1.6s1.6,2.4,1.6,3.9c0,0.4-0.1,0.8-0.2,1.2
		c-0.1,0.4-0.3,0.9-0.7,1.5c0.3-0.1,0.5-0.1,0.8-0.1c0.3,0,0.5,0,0.9,0c1.9,0,3.5,0.6,4.8,1.8s2.1,2.7,2.3,4.5c-0.5,0-1,0-1.5,0
		c-0.5,0-1,0.1-1.5,0.1c-0.2-1-0.6-1.8-1.4-2.5c-0.7-0.7-1.6-1-2.7-1c-1.2,0-2.2,0.3-2.9,1s-1.7,1.7-2.9,3.1h-1
		c-1.2-1.5-2.2-2.5-2.9-3.2c-0.7-0.7-1.7-1-2.8-1c-1.2,0-2.2,0.4-3,1.2c-0.8,0.8-1.2,1.8-1.2,3c0,0.8,0.2,1.6,0.7,2.5
		c0.4,0.8,1,1.7,1.8,2.7c0.8,1,1.8,2,2.9,3c1.1,1.1,2.4,2.2,3.8,3.5L20.6,31z M24,10.1c0.7,0,1.3-0.2,1.8-0.7
		c0.5-0.5,0.7-1.1,0.7-1.8s-0.2-1.3-0.7-1.8c-0.5-0.5-1.1-0.7-1.8-0.7c-0.7,0-1.3,0.2-1.8,0.7s-0.7,1.1-0.7,1.8s0.2,1.3,0.7,1.8
		C22.7,9.8,23.3,10.1,24,10.1z M30.9,45.9c-0.7,0-1.5-0.1-2.2-0.3s-1.4-0.6-2.1-1c0.3-0.4,0.5-0.9,0.8-1.4c0.3-0.5,0.5-1,0.6-1.4
		c0.5,0.4,0.9,0.6,1.4,0.8c0.5,0.2,1,0.3,1.5,0.3c1.2,0,2.2-0.4,3-1.3c0.8-0.8,1.2-1.8,1.2-3c0-0.7-0.1-1.4-0.4-2.1
		c-0.3-0.8-0.6-1.7-0.9-2.8l0.5-1c1.5-0.3,3.1-0.7,4.7-1.2c1.6-0.5,2.4-1.8,2.4-3.8c0-1.5-0.5-2.6-1.6-3.3s-2.2-1.1-3.5-1.1
		c-1.4,0-3.1,0.3-5,0.8s-4.1,1.2-6.7,2L24,23.4c2.5-0.8,4.8-1.5,6.9-2.1s3.9-0.9,5.6-0.9c2.1,0,4,0.6,5.7,1.9
		c1.6,1.3,2.5,3.1,2.5,5.4c0,0.9-0.2,1.8-0.5,2.6c-0.3,0.9-0.8,1.6-1.4,2.3c1.5,0,2.8,0.5,3.8,1.5S48,36.4,48,38
		c0,1.5-0.5,2.8-1.5,3.9c-1,1.1-2.3,1.7-3.9,1.7c-1,0-1.9-0.2-2.8-0.7c-0.8-0.5-1.4-1.2-1.9-2c-0.5,1.5-1.4,2.7-2.7,3.7
		S32.5,45.9,30.9,45.9z M42.5,40.6c0.7,0,1.2-0.2,1.7-0.7s0.7-1.1,0.7-1.8c0-0.7-0.2-1.3-0.8-1.8s-1.1-0.8-1.8-0.8
		c-0.7,0-1.2,0.2-1.8,0.8S40,37.4,40,38c0,0.7,0.3,1.3,0.8,1.8S41.9,40.6,42.5,40.6z"/>
</g>
<g id="Layer_2" class="st1">
	<path class="st2" d="M17.1,45.9c-1.6,0-3-0.5-4.3-1.4s-2.1-2.2-2.6-3.7c-0.5,0.9-1.2,1.5-1.9,2s-1.7,0.7-2.8,0.7
		c-1.6,0-2.9-0.6-3.9-1.7S0.1,39.5,0.1,38c0-1.6,0.5-2.9,1.5-3.9c1-0.9,2.3-1.4,3.9-1.5c-0.6-0.7-1.1-1.4-1.4-2.3
		c-0.3-0.9-0.5-1.8-0.5-2.7c0-1.3,0.3-2.5,1-3.5c0.7-1.1,1.6-2,2.8-2.7c0.2,0.4,0.4,0.9,0.6,1.4s0.5,0.9,0.8,1.3
		c-0.7,0.4-1.2,1-1.6,1.6s-0.6,1.3-0.6,2c0,2,0.8,3.3,2.4,3.8s3.2,0.9,4.7,1.2l0.5,1c-0.4,1.2-0.7,2.1-1,2.9s-0.4,1.4-0.4,2.1
		c0,1.1,0.4,2.1,1.3,3c0.9,0.9,1.8,1.3,3,1.3c1.4,0,2.5-0.6,3.4-1.7c0.9-1.2,1.6-2.5,2.1-4.1c0.6-1.6,1-3.2,1.3-4.8
		c0.3-1.6,0.6-2.9,0.8-3.8l2.9,0.8c-0.3,1.4-0.7,3.1-1.1,5c-0.4,1.9-1,3.7-1.7,5.4s-1.7,3.2-2.9,4.4S19,45.9,17.1,45.9z M5.6,40.5
		c0.7,0,1.3-0.2,1.8-0.7s0.7-1.1,0.7-1.8c0-0.7-0.2-1.3-0.7-1.8s-1.1-0.7-1.8-0.7s-1.3,0.2-1.8,0.7S3,37.3,3,38
		c0,0.7,0.2,1.3,0.7,1.8S4.8,40.5,5.6,40.5z M20.6,31c-1.5-1.3-2.9-2.6-4.1-3.7c-1.2-1.1-2.3-2.3-3.2-3.4c-0.9-1.1-1.6-2.2-2.1-3.2
		s-0.7-2.2-0.7-3.4c0-2,0.7-3.7,2.1-5.1s3.1-2.1,5.1-2.1c0.3,0,0.6,0,0.9,0c0.3,0,0.5,0.1,0.8,0.1c-0.3-0.6-0.5-1-0.6-1.4
		c-0.1-0.4-0.2-0.8-0.2-1.2c0-1.5,0.5-2.8,1.6-3.9s2.4-1.6,3.9-1.6s2.8,0.5,3.9,1.6s1.6,2.4,1.6,3.9c0,0.4-0.1,0.8-0.2,1.2
		c-0.1,0.4-0.3,0.9-0.7,1.5c0.3-0.1,0.5-0.1,0.8-0.1c0.3,0,0.5,0,0.9,0c1.9,0,3.5,0.6,4.8,1.8s2.1,2.7,2.3,4.5c-0.5,0-1,0-1.5,0
		c-0.5,0-1,0.1-1.5,0.1c-0.2-1-0.6-1.8-1.4-2.5c-0.7-0.7-1.6-1-2.7-1c-1.2,0-2.2,0.3-2.9,1s-1.7,1.7-2.9,3.1h-1
		c-1.2-1.5-2.2-2.5-2.9-3.2c-0.7-0.7-1.7-1-2.8-1c-1.2,0-2.2,0.4-3,1.2c-0.8,0.8-1.2,1.8-1.2,3c0,0.8,0.2,1.6,0.7,2.5
		c0.4,0.8,1,1.7,1.8,2.7c0.8,1,1.8,2,2.9,3c1.1,1.1,2.4,2.2,3.8,3.5L20.6,31z M24,10.1c0.7,0,1.3-0.2,1.8-0.7
		c0.5-0.5,0.7-1.1,0.7-1.8s-0.2-1.3-0.7-1.8c-0.5-0.5-1.1-0.7-1.8-0.7c-0.7,0-1.3,0.2-1.8,0.7s-0.7,1.1-0.7,1.8s0.2,1.3,0.7,1.8
		C22.7,9.8,23.3,10.1,24,10.1z M30.9,45.9c-0.7,0-1.5-0.1-2.2-0.3s-1.4-0.6-2.1-1c0.3-0.4,0.5-0.9,0.8-1.4c0.3-0.5,0.5-1,0.6-1.4
		c0.5,0.4,0.9,0.6,1.4,0.8c0.5,0.2,1,0.3,1.5,0.3c1.2,0,2.2-0.4,3-1.3c0.8-0.8,1.2-1.8,1.2-3c0-0.7-0.1-1.4-0.4-2.1
		c-0.3-0.8-0.6-1.7-0.9-2.8l0.5-1c1.5-0.3,3.1-0.7,4.7-1.2c1.6-0.5,2.4-1.8,2.4-3.8c0-1.5-0.5-2.6-1.6-3.3s-2.2-1.1-3.5-1.1
		c-1.4,0-3.1,0.3-5,0.8s-4.1,1.2-6.7,2L24,23.4c2.5-0.8,4.8-1.5,6.9-2.1s3.9-0.9,5.6-0.9c2.1,0,4,0.6,5.7,1.9
		c1.6,1.3,2.5,3.1,2.5,5.4c0,0.9-0.2,1.8-0.5,2.6c-0.3,0.9-0.8,1.6-1.4,2.3c1.5,0,2.8,0.5,3.8,1.5S48,36.4,48,38
		c0,1.5-0.5,2.8-1.5,3.9c-1,1.1-2.3,1.7-3.9,1.7c-1,0-1.9-0.2-2.8-0.7c-0.8-0.5-1.4-1.2-1.9-2c-0.5,1.5-1.4,2.7-2.7,3.7
		S32.5,45.9,30.9,45.9z M42.5,40.6c0.7,0,1.2-0.2,1.7-0.7s0.7-1.1,0.7-1.8c0-0.7-0.2-1.3-0.8-1.8s-1.1-0.8-1.8-0.8
		c-0.7,0-1.2,0.2-1.8,0.8S40,37.4,40,38c0,0.7,0.3,1.3,0.8,1.8S41.9,40.6,42.5,40.6z"/>
</g>
</svg>
