<svg id="Layer_1" data-name="Layer 1" xmlns="http://www.w3.org/2000/svg" viewBox="0 0 100 100"><defs><style>.cls-1{fill:#345da8;}.cls-2{fill:#ffcf02;}.cls-3{fill:#e52421;}.cls-4{fill:#1d1d1b;}</style></defs><path class="cls-1" d="M64,9a41.44,41.44,0,0,0-32,7A34.53,34.53,0,0,0,18.75,35c-2.84,9.73-1.11,20.16,5.53,27.87a24.64,24.64,0,0,0,14,7.83c8.62,1.38,18.8-3.28,19.38-12.93,0-2.47-.46-5-2.5-6.7A5.51,5.51,0,0,0,50,50a5.5,5.5,0,0,1-1.68-5c.48-2.64,2.4-4.32,4.56-5.52,8.64-4.32,17.76,2.16,20.88,10.32A24.62,24.62,0,0,1,74,65.84c-3.36,9.6-11.52,16.32-21.36,18.72a34.48,34.48,0,0,1-23-1.92A41.47,41.47,0,0,1,7.52,58.4a48,48,0,0,1,6.19-42.77A50,50,0,0,1,98,35.83,48,48,0,0,0,64,9Z"/><path class="cls-2" d="M0,50A49.8,49.8,0,0,1,13.71,15.63,48,48,0,0,0,7.52,58.4,41.47,41.47,0,0,0,29.6,82.64a34.48,34.48,0,0,0,23,1.92c9.84-2.4,18-9.12,21.36-18.72a24.62,24.62,0,0,0-.24-16.08C70.64,41.6,61.52,35.12,52.88,39.44c-2.16,1.2-4.08,2.88-4.56,5.52A5.5,5.5,0,0,0,50,50a5.51,5.51,0,0,1-3.53,4c-2.52.9-4.94.08-7.06-1.19-8.06-5.33-7-16.47-1.5-23.25a24.65,24.65,0,0,1,13.81-8.25c10-1.89,19.89,1.82,26.89,9.14a34.5,34.5,0,0,1,9.86,20.92,41.49,41.49,0,0,1-10,31.24,48,48,0,0,1-40.21,16A50,50,0,0,1,0,50Z"/><path class="cls-3" d="M52.86,97.68A48.53,48.53,0,0,0,78.52,82.59a41.49,41.49,0,0,0,10-31.24,34.5,34.5,0,0,0-9.86-20.92c-7-7.32-16.9-11-26.89-9.14a24.65,24.65,0,0,0-13.81,8.25c-5.51,6.78-6.56,17.92,1.5,23.25C41.53,54.06,44,54.88,46.47,54A5.51,5.51,0,0,0,50,50a5.51,5.51,0,0,1,5.21,1.07c2,1.73,2.54,4.23,2.5,6.7C57.13,67.42,47,72.08,38.33,70.7a24.64,24.64,0,0,1-14-7.83C17.64,55.16,15.91,44.73,18.75,35A34.53,34.53,0,0,1,31.93,16,41.44,41.44,0,0,1,64,9,48,48,0,0,1,98,35.83,50,50,0,0,1,38.31,98.61,49,49,0,0,0,52.86,97.68Z"/><path class="cls-4" d="M50,5A45,45,0,1,1,5,50,45.05,45.05,0,0,1,50,5m0-5a50,50,0,1,0,50,50A50,50,0,0,0,50,0Z"/></svg>